#N canvas 62 79 1205 655 10;
#X obj 130 343 *~;
#X obj 144 315 line~;
#X floatatom 192 359 5 0 0 0 - - -;
#X msg 144 259 0.5 1000;
#X obj 140 71 bng 15 250 50 0 empty empty empty 17 7 0 10 -262144 -1
-1;
#X obj 175 236 delay 1000;
#X obj 289 342 *~;
#X obj 303 314 line~;
#X floatatom 351 358 5 0 0 0 - - -;
#X msg 322 283 0 2000;
#X msg 303 258 0.5 1000;
#X obj 299 70 bng 15 250 50 0 empty empty empty 17 7 0 10 -262144 -1
-1;
#X obj 334 235 delay 1000;
#X obj 456 342 *~;
#X obj 470 314 line~;
#X floatatom 518 358 5 0 0 0 - - -;
#X msg 489 283 0 2000;
#X msg 470 258 0.5 1000;
#X obj 466 70 bng 15 250 50 0 empty empty empty 17 7 0 10 -262144 -1
-1;
#X obj 501 235 delay 1000;
#X obj 620 344 *~;
#X obj 634 316 line~;
#X floatatom 682 360 5 0 0 0 - - -;
#X msg 653 285 0 2000;
#X msg 634 260 0.5 1000;
#X obj 630 72 bng 15 250 50 0 empty empty empty 17 7 0 10 -262144 -1
-1;
#X obj 665 237 delay 1000;
#X obj 783 338 *~;
#X obj 797 310 line~;
#X floatatom 845 354 5 0 0 0 - - -;
#X msg 816 279 0 2000;
#X msg 797 254 0.5 1000;
#X obj 793 66 bng 15 250 50 0 empty empty empty 17 7 0 10 -262144 -1
-1;
#X obj 828 231 delay 1000;
#X obj 947 341 *~;
#X obj 961 313 line~;
#X floatatom 1009 357 5 0 0 0 - - -;
#X msg 980 282 0 2000;
#X msg 961 257 0.5 1000;
#X obj 957 69 bng 15 250 50 0 empty empty empty 17 7 0 10 -262144 -1
-1;
#X obj 992 234 delay 1000;
#X obj 1102 346 *~;
#X obj 1116 318 line~;
#X floatatom 1164 362 5 0 0 0 - - -;
#X msg 1135 287 0 2000;
#X msg 1116 262 0.5 1000;
#X obj 1112 74 bng 15 250 50 0 empty empty empty 17 7 0 10 -262144
-1 -1;
#X obj 1147 239 delay 1000;
#X obj 272 205 osc~ 417;
#X obj 439 205 osc~ 528;
#X obj 603 207 osc~ 639;
#X obj 766 201 osc~ 741;
#X obj 930 204 osc~ 852;
#X obj 1085 209 osc~ 963;
#X obj 159 535 dac~ 1 2;
#X obj 121 5 key 49;
#X obj 132 38 sel 49;
#X obj 286 -4 key;
#X obj 453 -2 key;
#X obj 616 2 key;
#X obj 782 -7 key;
#X obj 942 -5 key;
#X obj 1097 -7 key;
#X obj 297 29 sel 50;
#X obj 464 31 sel 51;
#X obj 627 35 sel 52;
#X obj 793 26 sel 53;
#X obj 953 28 sel 54;
#X obj 1108 26 sel 55;
#X msg 163 284 0 2000;
#X obj 870 537 table quanta;
#X obj 153 431 tabread~ quanta;
#X obj 164 477 *~;
#X obj 587 554 tabwrite~ quanta;
#X obj 601 498 metro 100;
#X obj 48 514 hip~ 5;
#X obj 115 472 hip~ 5;
#X obj 113 206 osc~ 396;
#X obj 101 573 tong~;
#X connect 0 0 73 0;
#X connect 0 0 75 0;
#X connect 1 0 0 1;
#X connect 2 0 0 1;
#X connect 3 0 1 0;
#X connect 4 0 3 0;
#X connect 4 0 5 0;
#X connect 4 0 74 0;
#X connect 5 0 69 0;
#X connect 6 0 73 0;
#X connect 6 0 76 0;
#X connect 7 0 6 1;
#X connect 8 0 6 1;
#X connect 9 0 7 0;
#X connect 10 0 7 0;
#X connect 11 0 10 0;
#X connect 11 0 12 0;
#X connect 11 0 73 0;
#X connect 12 0 9 0;
#X connect 13 0 54 0;
#X connect 14 0 13 1;
#X connect 15 0 13 1;
#X connect 16 0 14 0;
#X connect 17 0 14 0;
#X connect 18 0 17 0;
#X connect 18 0 19 0;
#X connect 18 0 73 0;
#X connect 19 0 16 0;
#X connect 20 0 54 1;
#X connect 20 0 73 0;
#X connect 21 0 20 1;
#X connect 22 0 20 1;
#X connect 23 0 21 0;
#X connect 24 0 21 0;
#X connect 25 0 24 0;
#X connect 25 0 26 0;
#X connect 25 0 73 0;
#X connect 26 0 23 0;
#X connect 27 0 54 1;
#X connect 27 0 73 0;
#X connect 28 0 27 1;
#X connect 29 0 27 1;
#X connect 30 0 28 0;
#X connect 31 0 28 0;
#X connect 32 0 31 0;
#X connect 32 0 33 0;
#X connect 32 0 73 0;
#X connect 33 0 30 0;
#X connect 34 0 54 1;
#X connect 34 0 73 0;
#X connect 35 0 34 1;
#X connect 36 0 34 1;
#X connect 37 0 35 0;
#X connect 38 0 35 0;
#X connect 39 0 38 0;
#X connect 39 0 40 0;
#X connect 39 0 73 0;
#X connect 40 0 37 0;
#X connect 41 0 54 1;
#X connect 41 0 73 0;
#X connect 42 0 41 1;
#X connect 43 0 41 1;
#X connect 44 0 42 0;
#X connect 45 0 42 0;
#X connect 46 0 45 0;
#X connect 46 0 47 0;
#X connect 47 0 44 0;
#X connect 48 0 6 0;
#X connect 49 0 13 0;
#X connect 50 0 20 0;
#X connect 51 0 27 0;
#X connect 52 0 34 0;
#X connect 53 0 41 0;
#X connect 55 0 56 0;
#X connect 56 0 4 0;
#X connect 57 0 63 0;
#X connect 58 0 64 0;
#X connect 59 0 65 0;
#X connect 60 0 66 0;
#X connect 61 0 67 0;
#X connect 62 0 68 0;
#X connect 63 0 11 0;
#X connect 64 0 18 0;
#X connect 65 0 25 0;
#X connect 66 0 32 0;
#X connect 67 0 39 0;
#X connect 68 0 46 0;
#X connect 68 0 73 0;
#X connect 69 0 1 0;
#X connect 74 0 73 0;
#X connect 75 0 54 0;
#X connect 76 0 54 0;
#X connect 77 0 0 0;
